<svg width="22" height="29" viewBox="0 0 22 29" fill="none" xmlns="http://www.w3.org/2000/svg">
<path d="M0 28.875C0 25.9576 1.15893 23.1597 3.22183 21.0968C5.28473 19.0339 8.08262 17.875 11 17.875C13.9174 17.875 16.7153 19.0339 18.7782 21.0968C20.8411 23.1597 22 25.9576 22 28.875H19.25C19.25 26.687 18.3808 24.5885 16.8336 23.0414C15.2865 21.4942 13.188 20.625 11 20.625C8.81196 20.625 6.71354 21.4942 5.16637 23.0414C3.61919 24.5885 2.75 26.687 2.75 28.875H0ZM11 16.5C6.44187 16.5 2.75 12.8081 2.75 8.25C2.75 3.69187 6.44187 0 11 0C15.5581 0 19.25 3.69187 19.25 8.25C19.25 12.8081 15.5581 16.5 11 16.5ZM11 13.75C14.0388 13.75 16.5 11.2888 16.5 8.25C16.5 5.21125 14.0388 2.75 11 2.75C7.96125 2.75 5.5 5.21125 5.5 8.25C5.5 11.2888 7.96125 13.75 11 13.75Z" fill="#E7E08B"/>
</svg>
