<svg width="34" height="30" viewBox="0 0 34 30" fill="none" xmlns="http://www.w3.org/2000/svg">
<path d="M10.8125 28.125C11.9516 28.125 12.875 27.2855 12.875 26.25C12.875 25.2145 11.9516 24.375 10.8125 24.375C9.67341 24.375 8.75 25.2145 8.75 26.25C8.75 27.2855 9.67341 28.125 10.8125 28.125Z" fill="#E7E08B"/>
<path d="M25.25 28.125C26.3891 28.125 27.3125 27.2855 27.3125 26.25C27.3125 25.2145 26.3891 24.375 25.25 24.375C24.1109 24.375 23.1875 25.2145 23.1875 26.25C23.1875 27.2855 24.1109 28.125 25.25 28.125Z" fill="#E7E08B"/>
<path d="M5.63562 2.62875C5.58892 2.4163 5.46271 2.22512 5.27847 2.08771C5.09422 1.95029 4.86331 1.87513 4.625 1.875H0.5V3.75H3.77938L7.73938 21.7463C7.78608 21.9587 7.91229 22.1499 8.09653 22.2873C8.28078 22.4247 8.51169 22.4999 8.75 22.5H27.3125V20.625H9.59562L8.77063 16.875H27.3125C27.5471 16.875 27.7747 16.8022 27.9576 16.6688C28.1406 16.5353 28.2681 16.3491 28.319 16.1409L30.6579 6.5625H28.5469L26.4854 15H8.35812L5.63562 2.62875Z" fill="#E7E08B"/>
</svg>
