<svg width="61" height="61" viewBox="0 0 61 61" fill="none" xmlns="http://www.w3.org/2000/svg">
<path d="M55.5 43.005C55.4989 46.4239 54.3303 49.7399 52.1876 52.4041C50.0449 55.0682 47.0566 56.9207 43.7175 57.655L42.1225 52.87C43.5831 52.6294 44.9721 52.0679 46.1895 51.2257C47.4069 50.3836 48.4223 49.2819 49.1625 48H43C41.6739 48 40.4021 47.4732 39.4645 46.5355C38.5268 45.5979 38 44.3261 38 43V33C38 31.6739 38.5268 30.4021 39.4645 29.4645C40.4021 28.5268 41.6739 28 43 28H50.345C49.7349 23.1672 47.3823 18.7232 43.7286 15.5017C40.0748 12.2802 35.3711 10.5027 30.5 10.5027C25.6289 10.5027 20.9252 12.2802 17.2714 15.5017C13.6177 18.7232 11.2651 23.1672 10.655 28H18C19.3261 28 20.5979 28.5268 21.5355 29.4645C22.4732 30.4021 23 31.6739 23 33V43C23 44.3261 22.4732 45.5979 21.5355 46.5355C20.5979 47.4732 19.3261 48 18 48H10.5C9.17392 48 7.90215 47.4732 6.96447 46.5355C6.02678 45.5979 5.5 44.3261 5.5 43V30.5C5.5 16.6925 16.6925 5.5 30.5 5.5C44.3075 5.5 55.5 16.6925 55.5 30.5V43V43.005Z" fill="#FFD233"/>
</svg>
