<svg width="21" height="17" viewBox="0 0 21 17" fill="none" xmlns="http://www.w3.org/2000/svg">
<path fill-rule="evenodd" clip-rule="evenodd" d="M1.55056 14.0556C1.25588 14.0556 0.973264 13.9385 0.76489 13.7301C0.556516 13.5218 0.439453 13.2391 0.439453 12.9445C0.439453 12.6498 0.556516 12.3672 0.76489 12.1588C0.973264 11.9504 1.25588 11.8333 1.55056 11.8333H3.77279L7.10612 8.50001L3.77279 5.16667H1.55056C1.26448 5.15388 0.994348 5.03122 0.796427 4.82425C0.598505 4.61728 0.488045 4.34194 0.488045 4.05556C0.488045 3.76919 0.598505 3.49385 0.796427 3.28688C0.994348 3.0799 1.26448 2.95725 1.55056 2.94445H4.8839L9.32834 7.3889L13.7728 2.94445H15.995V0.722229L20.4395 4.05667L15.995 7.3889V5.16667H14.8839L11.5506 8.50001L14.8839 11.8333H15.995V9.61112L20.4395 12.9445L15.995 16.2778V14.0556H13.7728L9.32834 9.61112L4.8839 14.0556H1.55056Z" fill="white"/>
</svg>
