<svg width="20" height="21" viewBox="0 0 20 21" fill="none" xmlns="http://www.w3.org/2000/svg">
<path fill-rule="evenodd" clip-rule="evenodd" d="M17.2917 14.4283C17.2906 14.4683 17.2867 14.5081 17.28 14.5475C17.2976 14.638 17.2949 14.7312 17.2722 14.8205C17.2495 14.9099 17.2074 14.9931 17.1488 15.0642C17.0902 15.1353 17.0165 15.1926 16.9332 15.2319C16.8498 15.2712 16.7588 15.2916 16.6667 15.2917H5C4.86321 15.2917 4.72775 15.3186 4.60137 15.371C4.47499 15.4233 4.36016 15.5 4.26343 15.5968C4.16671 15.6935 4.08998 15.8083 4.03763 15.9347C3.98528 16.0611 3.95834 16.1965 3.95834 16.3333C3.95834 16.4701 3.98528 16.6056 4.03763 16.732C4.08998 16.8583 4.16671 16.9732 4.26343 17.0699C4.36016 17.1666 4.47499 17.2434 4.60137 17.2957C4.72775 17.3481 4.86321 17.375 5 17.375H16.6667C16.8324 17.375 16.9914 17.4408 17.1086 17.5581C17.2258 17.6753 17.2917 17.8342 17.2917 18C17.2917 18.1658 17.2258 18.3247 17.1086 18.4419C16.9914 18.5592 16.8324 18.625 16.6667 18.625H5C4.39221 18.625 3.80932 18.3836 3.37955 17.9538C2.94978 17.524 2.70834 16.9411 2.70834 16.3333V4.66667C2.70834 4.05888 2.94978 3.47598 3.37955 3.04621C3.80932 2.61644 4.39221 2.375 5 2.375H16.1667C16.7883 2.375 17.2917 2.87833 17.2917 3.5V14.4283ZM7.5 5.70833C7.33424 5.70833 7.17527 5.77418 7.05806 5.89139C6.94085 6.0086 6.875 6.16757 6.875 6.33333C6.875 6.49909 6.94085 6.65806 7.05806 6.77528C7.17527 6.89249 7.33424 6.95833 7.5 6.95833H12.5C12.6658 6.95833 12.8247 6.89249 12.9419 6.77528C13.0592 6.65806 13.125 6.49909 13.125 6.33333C13.125 6.16757 13.0592 6.0086 12.9419 5.89139C12.8247 5.77418 12.6658 5.70833 12.5 5.70833H7.5Z" fill="white"/>
</svg>
