<svg width="20" height="11" viewBox="0 0 20 11" fill="none" xmlns="http://www.w3.org/2000/svg">
<path d="M13.7222 6.31818L12.9111 3.61096H12.2333L11.4167 6.31818L10.6833 3.61096H10L11.0889 7.38763H11.7056L12.5722 4.58263L13.4333 7.38763H14.0611L15.1444 3.61096H14.4611L13.7222 6.31818Z" fill="white"/>
<path d="M7 7.38763H9.58889V6.7643H7.62778V5.78041H9.4V5.15096H7.62778V4.24041H9.58889V3.61096H7V7.38763Z" fill="white"/>
<path d="M5.43889 6.2693L3.62778 3.61096H3V7.38763H3.62778V4.73541L5.43889 7.38763H6.06111V3.61096H5.43889V6.2693Z" fill="white"/>
<path d="M19.2167 8.55555L16.95 5.5L19.1722 2.50555C19.2938 2.34174 19.3703 2.14321 19.393 1.93323C19.4156 1.72325 19.3834 1.51053 19.3 1.32C19.2156 1.10644 19.0755 0.925156 18.8976 0.799002C18.7196 0.672848 18.5117 0.60747 18.3 0.611108H1.07778C0.938426 0.608682 0.800005 0.636476 0.67042 0.692903C0.540835 0.74933 0.422624 0.833286 0.32254 0.939973C0.222455 1.04666 0.142458 1.17399 0.0871156 1.31469C0.0317737 1.45539 0.00217158 1.60671 0 1.76L0 9.24611C0.0058393 9.55462 0.122501 9.84803 0.324472 10.0622C0.526443 10.2763 0.797289 10.3938 1.07778 10.3889H18.3611C18.5657 10.3926 18.767 10.3319 18.9413 10.2139C19.1155 10.0959 19.2554 9.92545 19.3444 9.72278C19.4244 9.53451 19.4548 9.32538 19.4322 9.11907C19.4096 8.91277 19.335 8.71756 19.2167 8.55555ZM1.11111 9.16666V1.83333H18.2111L15.5222 5.45722L18.25 9.16666H1.11111Z" fill="white"/>
</svg>
