<svg width="61" height="61" viewBox="0 0 61 61" fill="none" xmlns="http://www.w3.org/2000/svg">
<path d="M30.5 55.5C24.7083 54.0417 19.9267 50.7183 16.155 45.53C12.3833 40.3417 10.4983 34.5817 10.5 28.25V13L30.5 5.5L50.5 13V28.25C50.5 34.5833 48.615 40.3442 44.845 45.5325C41.075 50.7208 36.2933 54.0433 30.5 55.5ZM30.5 50.25C34.8333 48.875 38.4167 46.125 41.25 42C44.0833 37.875 45.5 33.2917 45.5 28.25V16.4375L30.5 10.8125L15.5 16.4375V28.25C15.5 33.2917 16.9167 37.875 19.75 42C22.5833 46.125 26.1667 48.875 30.5 50.25Z" fill="#FFD233"/>
</svg>
